HIERARCHY
ROOT Hips
{
	OFFSET 0.000000 0.000000 0.000000
	CHANNELS 6 Xposition Yposition Zposition Zrotation Yrotation Xrotation 
	JOINT LeftUpLeg_virtual
	{
		OFFSET 0.000000 0.000000 0.000000
		CHANNELS 3 Zrotation Yrotation Xrotation
		JOINT LeftUpLeg
		{
			OFFSET 8.479694 -4.795517 -0.379053
			CHANNELS 3 Zrotation Yrotation Xrotation
			JOINT LeftLeg
			{
				OFFSET 0.485052 -32.551468 0.112863
				CHANNELS 3 Zrotation Yrotation Xrotation
				JOINT LeftFoot
				{
					OFFSET 0.438033 -32.635670 -3.012641
					CHANNELS 3 Zrotation Yrotation Xrotation
					JOINT LeftToeBase
					{
						OFFSET 0.970169 -13.225353 11.864223
						CHANNELS 3 Zrotation Yrotation Xrotation
						End Site
						{
							OFFSET 0.000000 0.000000 0.000000
						}
					}
				}
			}
		}
	}
	JOINT RightUpLeg_virtual
	{
		OFFSET 0.000000 0.000000 0.000000
		CHANNELS 3 Zrotation Yrotation Xrotation
		JOINT RightUpLeg
		{
			OFFSET -8.479694 -4.795517 -0.379053
			CHANNELS 3 Zrotation Yrotation Xrotation
			JOINT RightLeg
			{
				OFFSET -0.484100 -32.551483 0.112903
				CHANNELS 3 Zrotation Yrotation Xrotation
				JOINT RightFoot
				{
					OFFSET -0.438985 -32.635651 -3.012681
					CHANNELS 3 Zrotation Yrotation Xrotation
					JOINT RightToeBase
					{
						OFFSET -0.970169 -13.225354 11.864223
						CHANNELS 3 Zrotation Yrotation Xrotation
						End Site
						{
							OFFSET 0.000000 0.000000 0.000000
						}
					}
				}
			}
		}
	}
	JOINT Spine_virtual
	{
		OFFSET 0.000000 0.000000 0.000000
		CHANNELS 3 Zrotation Yrotation Xrotation
		JOINT Spine
		{
			OFFSET 0.000000 7.722015 1.166203
			CHANNELS 3 Zrotation Yrotation Xrotation
			JOINT Spine1
			{
				OFFSET 0.000000 12.024086 0.248766
				CHANNELS 3 Zrotation Yrotation Xrotation
				JOINT Spine2
				{
					OFFSET -0.000000 11.503036 -0.491240
					CHANNELS 3 Zrotation Yrotation Xrotation
					JOINT Neck_virtual
					{
						OFFSET 0.000000 0.000000 0.000000
						CHANNELS 3 Zrotation Yrotation Xrotation
						JOINT Neck
						{
							OFFSET 0.000000 18.430687 -3.123054
							CHANNELS 3 Zrotation Yrotation Xrotation
							JOINT Head
							{
								OFFSET -0.000000 9.051071 1.034021
								CHANNELS 3 Zrotation Yrotation Xrotation
								End Site
								{
									OFFSET 0.000000 0.000000 0.000000
								}
							}
						}
					}
					JOINT LeftShoulder_virtual
					{
						OFFSET 0.000000 0.000000 0.000000
						CHANNELS 3 Zrotation Yrotation Xrotation
						JOINT LeftShoulder
						{
							OFFSET 6.197824 13.665230 -4.064723
							CHANNELS 3 Zrotation Yrotation Xrotation
							JOINT LeftArm
							{
								OFFSET 7.778132 -0.187073 -1.709282
								CHANNELS 3 Zrotation Yrotation Xrotation
								JOINT LeftForeArm
								{
									OFFSET 21.954697 0.000000 -2.041093
									CHANNELS 3 Zrotation Yrotation Xrotation
									JOINT LeftHand
									{
										OFFSET 22.992908 0.000000 -0.870901
										CHANNELS 3 Zrotation Yrotation Xrotation
										End Site
										{
											OFFSET 0.000000 0.000000 0.000000
										}
									}
								}
							}
						}
					}
					JOINT RightShoulder_virtual
					{
						OFFSET 0.000000 0.000000 0.000000
						CHANNELS 3 Zrotation Yrotation Xrotation
						JOINT RightShoulder
						{
							OFFSET -6.197824 13.665230 -4.064723
							CHANNELS 3 Zrotation Yrotation Xrotation
							JOINT RightArm
							{
								OFFSET -7.778132 -0.187073 -1.709282
								CHANNELS 3 Zrotation Yrotation Xrotation
								JOINT RightForeArm
								{
									OFFSET -21.954697 0.000000 -2.041093
									CHANNELS 3 Zrotation Yrotation Xrotation
									JOINT RightHand
									{
										OFFSET -22.992908 0.000000 -0.870901
										CHANNELS 3 Zrotation Yrotation Xrotation
										End Site
										{
											OFFSET 0.000000 0.000000 0.000000
										}
									}
								}
							}
						}
					}
				}
			}
		}
	}
}
MOTION
Frames: 9
Frame Time: 0.033333
39.723537 82.063950 -6.345244 -179.997505 2.029999 -179.945896 -4.514823 0.565350 11.191493 1.902437 -3.630660 -24.134576 5.860471 6.207162 25.163573 -4.124778 -7.820390 -6.806377 0.000000 0.000000 0.000000 -0.502171 0.526215 11.641635 -2.186199 -8.333847 -12.163852 -1.839259 1.690770 20.177817 10.537536 12.367420 -8.056439 0.000000 0.000000 0.000000 3.246657 3.097509 1.527724 -5.730148 0.687247 -1.981912 -0.004524 -4.193054 2.998920 0.017523 -0.014445 0.027187 -0.243356 -3.144369 4.201464 -0.372212 2.308667 -18.787185 0.000000 0.000000 0.000000 1.121531 -2.206192 1.463469 14.212201 6.079982 -6.163713 -11.462213 -6.799639 -37.753031 -8.135011 -15.623583 -6.872571 0.000000 0.000000 0.000000 -2.782276 -1.021390 0.986053 1.418525 -7.711826 -9.065807 34.596237 -9.544221 -42.393984 0.683621 26.980808 -10.374302 0.000000 0.000000 0.000000 
39.733456 82.070450 -6.394894 179.951360 1.997472 -179.880504 -4.540297 0.584895 11.238187 1.964101 -3.699797 -24.065693 6.064760 6.282890 25.382964 -3.898111 -7.514665 -6.670520 0.000000 0.000000 0.000000 -0.523229 0.585967 11.756445 -2.178854 -8.576103 -12.038379 -1.629228 1.841563 20.460993 10.804529 12.618191 -8.055772 0.000000 0.000000 0.000000 3.134239 3.166528 1.524563 -5.742322 0.696005 -2.059778 -0.009251 -4.187601 2.954143 0.024049 -0.011500 0.001184 -0.232325 -3.155296 4.220461 -0.362526 2.280161 -18.817533 0.000000 0.000000 0.000000 1.135211 -2.228331 1.502167 14.277877 6.049404 -6.180909 -11.432565 -6.708869 -37.942401 -8.154191 -15.677448 -6.896397 0.000000 0.000000 0.000000 -2.747128 -0.995866 1.019665 1.444351 -7.704122 -9.042928 34.659829 -9.559939 -42.289215 0.634575 27.115663 -10.285742 0.000000 0.000000 0.000000 
39.765354 82.071320 -6.460377 -179.971701 1.907900 -179.897839 -4.494981 0.690633 11.279483 2.045200 -3.650236 -24.070910 6.004266 6.249504 25.380336 -4.006323 -7.594918 -6.735232 0.000000 0.000000 0.000000 -0.430991 0.643113 11.801484 -2.148366 -8.671089 -12.058716 -1.613074 1.836976 20.561634 10.787399 12.557118 -8.093170 0.000000 0.000000 0.000000 3.115918 3.213624 1.515410 -5.682755 0.746555 -2.051092 0.023030 -4.152992 2.994856 0.022231 0.010101 0.003165 -0.246999 -3.138411 4.191693 -0.292251 2.325794 -18.671116 0.000000 0.000000 0.000000 1.123562 -2.197969 1.432442 14.348863 5.959609 -6.236138 -11.352140 -6.574319 -37.953565 -8.176630 -15.676370 -6.866221 0.000000 0.000000 0.000000 -2.803261 -1.001586 0.965233 1.588111 -7.667515 -8.965107 34.550478 -9.573851 -42.256120 0.665789 27.158005 -10.262903 0.000000 0.000000 0.000000 
39.814850 82.075027 -6.526149 -179.975608 1.658090 -179.875108 -4.489999 0.678065 11.308229 2.124433 -3.669287 -24.093400 5.952232 6.232839 25.389611 -4.117586 -7.652446 -6.719893 0.000000 0.000000 0.000000 -0.379559 0.603166 11.857648 -2.118384 -8.792366 -12.111778 -1.618302 1.791151 20.683109 10.802313 12.480975 -8.088098 0.000000 0.000000 0.000000 3.069678 3.186096 1.615503 -5.670895 0.754970 -2.255855 0.016581 -4.138753 3.041532 0.029105 -0.001870 0.034529 -0.253238 -3.091299 4.111295 -0.181742 2.347761 -18.535942 0.000000 0.000000 0.000000 1.128393 -2.198595 1.362754 14.390478 5.821813 -6.217331 -11.260793 -6.508449 -37.955679 -8.175216 -15.696591 -6.761917 0.000000 0.000000 0.000000 -2.795225 -0.975888 0.913537 1.706573 -7.632683 -8.902533 34.496618 -9.562057 -42.454308 0.806350 27.182107 -10.165996 0.000000 0.000000 0.000000 
39.877914 82.075546 -6.575490 -179.981017 1.384173 -179.875819 -4.482573 0.643231 11.319825 2.215755 -3.722461 -24.117572 5.890191 6.266284 25.426346 -4.256582 -7.742480 -6.728675 0.000000 0.000000 0.000000 -0.328910 0.531678 11.923610 -2.074399 -8.870815 -12.192700 -1.649219 1.731455 20.842201 10.829036 12.371505 -8.084970 0.000000 0.000000 0.000000 3.063470 3.143096 1.658655 -5.653954 0.766420 -2.333667 0.025188 -4.110170 2.982792 0.022549 -0.014080 0.001209 -0.232343 -3.038501 4.187119 -0.027410 2.377748 -18.323798 0.000000 0.000000 0.000000 1.117408 -2.107510 1.460781 14.418876 5.681545 -6.221791 -11.186579 -6.575317 -37.900638 -8.121954 -15.727069 -6.628943 0.000000 0.000000 0.000000 -2.801385 -0.933970 0.988931 1.856752 -7.631037 -8.906063 34.367060 -9.602485 -42.406609 0.839347 27.253218 -10.157352 0.000000 0.000000 0.000000 
39.963047 82.071281 -6.604619 179.981167 1.240444 -179.897716 -4.478621 0.661134 11.310482 2.338346 -3.806625 -24.149934 5.821263 6.358627 25.497298 -4.371029 -7.827643 -6.806843 0.000000 0.000000 0.000000 -0.293371 0.503674 12.000904 -2.026279 -8.960522 -12.304242 -1.661954 1.711480 21.029370 10.882705 12.251186 -8.113790 0.000000 0.000000 0.000000 3.036022 3.137555 1.712679 -5.624430 0.793541 -2.424801 0.067315 -4.044771 2.992620 0.023037 -0.002624 0.027562 -0.230740 -2.967215 4.160071 0.105849 2.503596 -18.053209 0.000000 0.000000 0.000000 1.127505 -2.057941 1.422931 14.447576 5.396334 -6.175989 -11.208370 -6.517422 -37.836209 -8.093634 -15.801977 -6.442598 0.000000 0.000000 0.000000 -2.812997 -0.875904 0.976375 1.977245 -7.636701 -8.743638 34.208593 -9.383570 -42.681275 0.909967 27.381149 -10.088095 0.000000 0.000000 0.000000 
40.062634 82.070091 -6.620115 179.923821 1.028669 -179.903399 -4.486576 0.678337 11.336409 2.447354 -3.918734 -24.194460 5.768785 6.411968 25.522139 -4.477145 -7.912147 -6.792185 0.000000 0.000000 0.000000 -0.269891 0.468675 12.088097 -1.986528 -9.057658 -12.459662 -1.643064 1.625813 21.208496 10.981240 12.121312 -8.178369 0.000000 0.000000 0.000000 3.071340 3.127695 1.746192 -5.635224 0.793582 -2.551163 0.033116 -3.974646 3.035335 -0.005003 -0.014927 0.016763 -0.131650 -2.856983 4.154328 0.293915 2.467283 -17.817961 0.000000 0.000000 0.000000 1.169794 -1.971965 1.442768 14.464293 5.062515 -6.087281 -11.327540 -6.566032 -37.702801 -8.003465 -15.954943 -6.250187 0.000000 0.000000 0.000000 -2.750626 -0.789678 0.978968 2.078033 -7.627744 -8.579908 34.098681 -9.455962 -42.860663 0.938789 27.535177 -10.009863 0.000000 0.000000 0.000000 
40.172218 82.069504 -6.617605 179.989336 0.832701 -179.911800 -4.405377 0.744607 11.407001 2.618099 -3.980677 -24.267116 5.714509 6.369748 25.573997 -4.535586 -7.980665 -6.821005 0.000000 0.000000 0.000000 -0.156503 0.422744 12.192639 -1.899634 -9.073147 -12.632699 -1.627808 1.432111 21.391966 11.085318 11.999013 -8.239373 0.000000 0.000000 0.000000 3.162539 3.116311 1.807169 -5.525631 0.834147 -2.691935 0.064139 -3.861018 3.092706 -0.038255 0.013573 0.058008 -0.115620 -2.757227 4.189882 0.344649 2.467993 -17.419783 0.000000 0.000000 0.000000 1.158063 -1.883170 1.520641 14.429577 4.614432 -6.059887 -11.549635 -6.719899 -37.347539 -7.798144 -16.075105 -6.012051 0.000000 0.000000 0.000000 -2.767470 -0.742031 0.923460 2.186005 -7.720339 -8.324051 34.067279 -9.522642 -42.968488 0.959598 27.688013 -9.708184 0.000000 0.000000 0.000000 
40.279850 82.070488 -6.601573 179.909532 0.856495 -179.931894 -4.454166 0.713543 11.499607 2.736292 -4.115195 -24.346426 5.682377 6.491305 25.530221 -4.523183 -8.007705 -6.829130 0.000000 0.000000 0.000000 -0.174486 0.350105 12.264808 -1.911843 -9.102416 -12.791998 -1.587752 1.446071 21.522747 11.227377 11.879229 -8.308672 0.000000 0.000000 0.000000 3.148567 3.038779 1.847035 -5.453090 0.847499 -2.855463 0.067754 -3.786187 3.138791 0.013000 -0.013435 0.044060 -0.091052 -2.649482 4.212644 0.384284 2.474144 -17.044329 0.000000 0.000000 0.000000 1.174085 -1.740921 1.505347 14.370373 4.175723 -6.075065 -11.987222 -6.638474 -37.073860 -7.667307 -16.282143 -5.748815 0.000000 0.000000 0.000000 -2.775969 -0.560085 1.034282 2.320636 -7.646274 -8.139275 33.835989 -9.603300 -43.252559 0.990284 27.911507 -9.684923 0.000000 0.000000 0.000000 
